<mxfile host="app.diagrams.net" modified="2020-11-16T15:16:03.193Z" agent="5.0 (Windows)" etag="Njq8-6bqebdI7hsHNFhv" version="13.9.9" type="github">
  <diagram id="fdWYU5jakajkwXc9lc4z" name="Page-1">
    <mxGraphModel dx="1038" dy="554" grid="1" gridSize="10" guides="1" tooltips="1" connect="1" arrows="1" fold="1" page="1" pageScale="1" pageWidth="850" pageHeight="1100" math="0" shadow="0">
      <root>
        <mxCell id="0" />
        <mxCell id="1" parent="0" />
        <mxCell id="Qobmi5KylzPXDVHkuA8e-1" value="" style="rounded=0;whiteSpace=wrap;html=1;" vertex="1" parent="1">
          <mxGeometry x="360" y="260" width="120" height="60" as="geometry" />
        </mxCell>
      </root>
    </mxGraphModel>
  </diagram>
</mxfile>
